<?xml version="1.0" encoding="utf-8"?>
<!-- Generator: Adobe Illustrator 17.0.0, SVG Export Plug-In . SVG Version: 6.00 Build 0)  -->
<!DOCTYPE svg PUBLIC "-//W3C//DTD SVG 1.1//EN" "http://www.w3.org/Graphics/SVG/1.1/DTD/svg11.dtd">
<svg version="1.1" id="Layer_1" xmlns="http://www.w3.org/2000/svg" xmlns:xlink="http://www.w3.org/1999/xlink" x="0px" y="0px"
	 width="643px" height="600px" viewBox="0 0 643 600" enable-background="new 0 0 643 600" xml:space="preserve">
<path d="M15.708,548.882c18.127-45.019,45.659-80.678,95.399-92.888c15.495-3.804,31.556-6.573,47.46-7.189
	c41.94-1.625,64.728-30.395,55.866-72.103c-1.836-8.642-4.452-17.457-4.209-26.123c0.367-13.102-4.644-19.771-16.857-24.885
	c-16.004-6.701-24.672-19.663-23.096-38.365c2.272-26.952-8.834-57.356,21.452-76.794c2.801-1.798,3.173-8.704,3.218-13.253
	c0.279-28.098,0.14-56.201,0.14-87.176c-31.51-6.767-62.762-12.706-93.52-20.578C92.892,87.31,85.672,79.43,77.788,74.147
	c7.718-5.473,14.761-14.109,23.259-15.923C172.472,42.986,244.146,28.907,315.808,14.8c6.113-1.203,12.869-1.075,19.01,0.097
	c73.323,13.994,146.589,28.29,219.858,42.565c3.937,0.767,8.247,1.27,11.546,3.274c5.027,3.053,13.545,8.069,13.038,10.9
	c-1.024,5.719-6.665,10.994-11.302,15.532c-2.576,2.521-6.968,3.187-9.126,4.094c-8.864,67.37,3.61,131,19.723,194.318
	c8.195,32.204,4.693,36.088-29.108,36.02c-48.292-0.098-48.928-0.255-37.13-48.006c14.296-57.865,24.295-115.938,16.606-177.774
	c-24.31,4.855-47.727,9.531-74.137,14.805c0,28.374-0.157,57.087,0.209,85.794c0.043,3.388,2.176,7.505,4.643,9.993
	c33.905,34.191,28.118,97.731-11.136,124.312c-3.755,2.543-6.539,8.017-7.662,12.643c-2.454,10.108-1.415,21.52-5.593,30.669
	c-13.698,30.003,7.087,48.643,21.991,68.407c3.883,5.149,15.824,5.703,24.095,5.801c33.531,0.397,65.739,5.538,94.47,23.993
	c34.71,22.294,54.379,54.339,57.172,95.435c0.516,7.589-6.652,15.701-10.273,23.571c-5.445-6.55-15.077-12.726-15.699-19.706
	c-7.742-86.878-90.099-102.608-148.998-93.876c-12.909,1.914-24.271,14.963-36.117,23.212
	c-26.398,18.383-53.08,36.405-78.787,55.717c-13.069,9.818-23.253,9.777-36.449-0.054c-30.298-22.572-61.52-43.92-92.631-65.381
	c-63.701-43.941-160.829-0.977-170.383,75.58c-2.23,17.867-6.11,30.606-27.928,20.789C15.708,574.642,15.708,561.762,15.708,548.882
	z M425.886,196.945c-68.653,15.476-134.618,15.101-193.843,1.868c-11.144,14.825-19.297,27.156-28.954,38.168
	c-14.086,16.063-7.57,64.782,11.319,68.495c17.914,3.522,20.13,13.378,22.392,28.258c3.708,24.395,7.581,49.408,16.385,72.23
	c12.528,32.475,35.305,56.648,73.708,55.595c36.973-1.014,58.874-24.908,70.411-56.817c8.615-23.828,11.316-49.76,17.277-74.604
	c1.752-7.301,3.929-15.844,8.93-20.724c8.785-8.574,24.84-12.747,28.798-22.455c5.051-12.39,1.563-28.466,0.784-42.901
	c-0.227-4.202-3.621-11.697-5.827-11.796C424.186,231.224,427.748,213.087,425.886,196.945z M167.825,72.052
	c-0.182,1.296-0.365,2.591-0.547,3.887c18.606,4.147,37.075,9.094,55.843,12.285c49.858,8.475,98.174,28.454,150.938,12.318
	c37.148-11.361,76.167-16.606,114.35-24.581c-34.8-10.544-68.998-18.305-103.527-24.091c-25.043-4.196-51.138-10.613-75.678-7.493
	C261.674,50.417,214.908,62.483,167.825,72.052z M421.74,115.347c-64.465,25.925-130.897,20.663-198.873-0.968
	c0,12.449,0.991,19.741-0.183,26.667c-3.781,22.306,5.728,33.124,27.72,33.664c43.065,1.058,86.225,4.055,129.18,2.266
	c48.528-2.021,50.673-6.527,46.758-54.234C426.283,122.033,425.534,121.382,421.74,115.347z M214.882,459.045
	c35.183,24.654,67.815,48.021,101.179,70.291c4.348,2.902,14.134,2.637,18.566-0.357c33.18-22.417,65.648-45.89,99.66-69.967
	c-6.489-9.72-12.085-18.105-18.78-28.133c-22.557,35.247-50.583,57.812-91.457,57.735c-40.64-0.076-67.681-24.044-90.348-57.983
	C226.956,440.817,221.76,448.662,214.882,459.045z"/>
</svg>
